<?xml version="1.0" encoding="UTF-8"?>
<svg id="Layer_1" xmlns="http://www.w3.org/2000/svg" viewBox="0 0 1280 208.44">
    <defs>
        <style>.cls-1{fill:#fcfdff;}</style>
    </defs>
    <g id="Lockup">
        <g id="Monogram">
            <path class="cls-1"
                d="M124.68,109.66c0,19.16,7.2,36.63,19.05,49.87H0L49.87,59.8h93.86c-11.85,13.22-19.05,30.71-19.05,49.87Z" />
            <rect class="cls-1" x="149.61" y="59.8" width="99.74" height="99.74" rx="49.87"
                ry="49.87" />
        </g>
        <g id="Wordmark">
            <path class="cls-1"
                d="M417.89,63.22l-17.49,30.11c-6.32-5.34-13.91-8.33-21.6-8.33-5.55,0-8.84,1.71-9.45,5.13-.57,3.2,.88,4.7,4.79,5.55l8.59,2.14c14.39,3.2,21.51,13.67,19.1,27.34-3.84,21.78-26.85,37.16-55.68,37.16-11.75,0-21.83-2.14-34.39-7.26-2.16-1.07-5.35-2.35-9.5-4.27l17.28-30.11c9.43,7.05,18.66,10.46,27.41,10.46,4.91,0,8.24-1.92,8.84-5.34,.64-3.63-1.76-5.77-9.75-7.69-19.25-4.7-25.05-11.75-22.52-26.06,3.85-21.78,26.54-37.8,53.66-37.8,13.46,0,25.99,2.78,40.71,8.97Z" />
            <path class="cls-1"
                d="M487.05,59.8c-2.41,6.41-3.18,8.33-6.74,15.16l1.77,.86c10.43-14.31,18.63-19.65,31.45-19.65,22,0,35.59,22.21,30.73,49.76-5.35,30.33-31.1,56.38-55.66,56.38-15.59,0-25.41-7.26-27.56-20.5l-1.82,.64c-.59,5.77-.87,8.54-1.51,12.17-.91,5.13-2.28,10.47-3.97,16.44l-11.3,37.37h-49.55l44.61-148.64h49.55Zm8.02,48.91c1.39-7.9-2.5-13.67-9.12-13.67-7.26,0-14.56,7.47-16.14,16.44-1.4,7.9,2.36,13.24,9.41,13.24,7.69,0,14.2-6.62,15.86-16.02Z" />
            <path class="cls-1"
                d="M655.18,57.02l-14.65,49.12c-4.85-2.78-7.05-3.63-10.89-3.63-12.17,0-21.09,9.4-26.69,27.76l-8.8,29.26h-49.76l29.78-99.73h49.98c-2.74,7.05-3.79,9.4-8.68,17.73l1.95,1.07c12.12-16.66,20.62-22.43,31.72-22.43,1.71,0,3.17,.21,6.04,.85Z" />
            <path class="cls-1"
                d="M716.2,59.8l-29.78,99.73h-49.34l29.78-99.73h49.34Zm13.71-36.52c-2.37,13.45-16.65,24.13-32.88,24.13-15.16,0-25.35-10.04-23.09-22.85,2.3-13.03,17.36-24.56,32.53-24.56s25.63,10.89,23.44,23.28Z" />
            <path class="cls-1"
                d="M786.46,59.8c-2.97,8.33-4.02,10.68-8.04,17.73l1.63,.43c12.83-15.8,22.43-21.78,35.24-21.78,18.8,0,30.23,13.88,26.95,32.46-.75,4.27-2.05,9.18-3.75,15.16l-16.67,55.74h-49.55l14.5-48.26c.92-2.78,1.59-5.34,1.81-6.62,.87-4.91-.82-7.47-5.09-7.47-6.62,0-9.36,3.42-13.04,15.8l-13.99,46.56h-49.34l29.78-99.73h49.55Z" />
            <path class="cls-1"
                d="M914.48,96.74l-18.77,62.79h-49.34l18.77-62.79-13.04,1.28,11.81-39.08,11.8,2.13,10.67-35.02h49.34l-10.45,35.02,12.4-1.28-11.45,38.23-11.73-1.28Z" />
            <path class="cls-1"
                d="M1071.56,59.8l-29.99,99.73h-48.91c2.7-6.83,3.64-8.54,8.47-17.73l-1.38-.64c-11.18,14.95-21.25,21.14-34.49,21.14-22.42,0-37.88-21.36-33.43-46.56,5.58-31.61,33.97-59.37,60.46-59.37,15.8,0,23.29,5.98,26.35,21.36l1.82-.64c.39-7.05,.63-9.61,1.61-15.16l.38-2.14h49.12Zm-62.45,48.91c1.32-7.47-2.62-13.03-9.45-13.03-7.69,0-15.63,7.47-17.17,16.23-1.28,7.26,2.9,12.6,9.95,12.6,7.9,0,15.09-6.83,16.67-15.8Z" />
            <path class="cls-1" d="M1158.32,3.84l-46.71,155.69h-49.34L1108.98,3.84h49.34Z" />
            <path class="cls-1"
                d="M1280,59.8l-103.77,148.64h-52.97l25.16-36.09c8.37-11.1,10.28-13.45,17.5-20.5l-13.86-92.05h50.83l-.63,27.76c-.11,7.9-.5,11.32-1.33,16.02-.53,2.99-.91,5.13-2.24,10.25l2.1,.21c4.54-12.39,7.12-18.58,12.2-27.98l13.82-26.27h53.18Z" />
        </g>
    </g>
</svg>