<svg width="984" height="117" viewBox="0 0 984 117" fill="none" xmlns="http://www.w3.org/2000/svg">
    <g clip-path="url(#clip0_1_2)">
        <path
            d="M983.073 86.36H970.087C957.691 86.36 950.313 80.3588 950.313 67.471V51.927H943.033V36.7765H950.313V28.2174H968.808V36.7765H983.073V51.927H968.808V64.8148C968.808 68.75 969.989 69.7338 974.219 69.7338H983.073V86.36Z"
            fill="white" />
        <path
            d="M915.865 87.3438C898.354 87.3438 889.008 80.5556 889.008 69.1435V68.75H907.503V69.7338C907.503 72.4884 909.274 72.7836 915.964 72.7836C922.358 72.7836 923.342 72.0949 923.342 70.4224C923.342 68.8484 922.555 68.4548 917.931 67.9629L903.568 66.3889C893.336 65.3067 887.827 60.4861 887.827 52.1238C887.827 43.3679 894.812 35.7927 913.406 35.7927C930.622 35.7927 939.772 41.9906 939.772 54.1897V54.5833H921.276V53.993C921.276 51.4351 920.292 50.2545 912.816 50.2545C906.814 50.2545 906.027 51.0416 906.027 52.9108C906.027 54.2881 906.814 54.9768 912.619 55.5671L922.457 56.6492C936.919 58.2233 941.542 63.0439 941.542 71.4062C941.542 80.654 932.295 87.3438 915.865 87.3438Z"
            fill="white" />
        <path
            d="M883.297 32.251H864.802V20.4454H883.297V32.251ZM883.297 86.36H864.802V36.7765H883.297V86.36Z"
            fill="white" />
        <path d="M858.894 86.36H840.399V20.4454H858.894V86.36Z" fill="white" />
        <path
            d="M796.926 86.36H778.431V20.4454H796.926V53.993H805.682L816.602 36.7765H838.443L820.833 60.8796L838.147 86.36H816.307L805.879 70.5208H796.926V86.36Z"
            fill="white" />
        <path
            d="M745.746 87.3438C728.136 87.3438 716.92 77.6042 716.92 61.5682C716.92 45.4339 728.136 35.7927 745.746 35.7927C762.667 35.7927 773.489 44.4501 773.489 57.7314V59.3055H755.092V58.5185C755.092 53.4027 751.353 52.3205 745.352 52.3205C738.564 52.3205 735.317 53.7962 735.317 61.5682C735.317 69.2419 738.564 70.7176 745.352 70.7176C751.353 70.7176 755.092 69.7338 755.092 64.618V63.7326H773.489V65.4051C773.489 78.588 762.667 87.3438 745.746 87.3438Z"
            fill="white" />
        <path
            d="M685.31 87.3438C668.487 87.3438 656.682 80.1621 656.682 61.5682C656.682 45.4339 668.389 35.7927 684.917 35.7927C702.035 35.7927 712.955 44.3517 712.955 60.2893C712.955 61.9618 712.857 63.2407 712.66 65.0115H673.8C674.095 71.0127 676.751 72.6852 684.622 72.6852C692.098 72.6852 694.066 71.4062 694.066 68.4548V67.3727H712.561V68.5532C712.561 79.5718 702.035 87.3438 685.31 87.3438ZM684.523 49.9594C677.735 49.9594 674.882 51.4351 674.095 55.6654H695.05C694.361 51.4351 691.41 49.9594 684.523 49.9594Z"
            fill="white" />
        <path
            d="M611.887 86.36H593.392V20.4454H611.887V51.8286H612.871C614.445 43.4663 619.954 35.7927 632.645 35.7927C645.828 35.7927 652.125 44.155 652.125 55.1735V86.36H633.629V61.3715C633.629 54.4849 630.973 52.3205 622.512 52.3205C613.953 52.3205 611.887 54.3865 611.887 60.7812V86.36Z"
            fill="white" />
        <path
            d="M553.102 87.3438C530.18 87.3438 516.702 73.9641 516.702 53.4027C516.702 32.8413 530.18 19.4616 553.102 19.4616C575.238 19.4616 588.519 29.9883 588.519 47.5983V49.2707H567.859V47.5983C567.859 40.1214 564.317 37.17 553.397 37.17C540.018 37.17 536.378 40.3182 536.378 53.4027C536.378 66.4872 540.018 69.6354 553.397 69.6354C564.317 69.6354 567.859 66.684 567.859 59.2071V57.5347H588.519V59.2071C588.519 76.8171 575.238 87.3438 553.102 87.3438Z"
            fill="white" />
        <path
            d="M456.631 103.085H438.136V36.7765H455.451V50.1562H456.435C458.009 40.3182 463.911 35.7927 475.52 35.7927C490.671 35.7927 499.033 45.5323 499.033 61.5682C499.033 77.7026 490.868 87.3438 476.307 87.3438C464.6 87.3438 459.091 81.8345 457.615 73.5706H456.631V103.085ZM456.631 62.1585C456.631 69.1435 460.567 70.5208 468.83 70.5208C477.39 70.5208 480.341 68.1597 480.341 61.5682C480.341 54.9768 477.39 52.714 468.83 52.714C460.567 52.714 456.631 54.2881 456.631 61.4699V62.1585Z"
            fill="white" />
        <path
            d="M394.227 87.3438C380.355 87.3438 373.862 79.2766 373.862 68.5532V36.7765H392.358V61.765C392.358 68.6516 395.014 70.816 403.475 70.816C412.034 70.816 414.1 68.75 414.1 62.3553V36.7765H432.595V86.36H415.28V71.3079H414.296C413.214 79.5718 407.705 87.3438 394.227 87.3438Z"
            fill="white" />
        <path
            d="M369.447 86.36H356.461C344.065 86.36 336.687 80.3588 336.687 67.471V51.927H329.407V36.7765H336.687V28.2174H355.182V36.7765H369.447V51.927H355.182V64.8148C355.182 68.75 356.363 69.7338 360.593 69.7338H369.447V86.36Z"
            fill="white" />
        <path
            d="M297.052 86.36H278.557V36.7765H295.871V49.7626H296.855C298.233 41.5971 303.348 35.7927 313.186 35.7927C324.107 35.7927 328.435 42.9744 328.435 52.9108V62.7488H309.94V56.9444C309.94 52.8124 308.366 51.3367 303.545 51.3367C298.528 51.3367 297.052 52.8124 297.052 56.7476V86.36Z"
            fill="white" />
        <path
            d="M236.083 87.3438C224.868 87.3438 218.572 82.228 218.572 73.7674C218.572 66.7824 223.392 61.765 234.608 60.6828L254.776 58.7152V57.7314C254.776 52.714 252.611 51.927 246.02 51.927C239.92 51.927 238.051 53.1076 238.051 57.2395V57.633H219.556V57.4363C219.556 44.2534 230.574 35.7927 247.397 35.7927C264.712 35.7927 273.074 44.2534 273.074 58.1249V86.36H255.759V75.9317H254.776C252.906 82.9167 246.807 87.3438 236.083 87.3438ZM237.166 72.5868C237.166 74.1609 238.74 74.456 241.593 74.456C250.545 74.456 254.185 73.3738 254.677 68.9467L239.527 70.7176C237.854 70.9143 237.166 71.5046 237.166 72.5868Z"
            fill="white" />
        <path
            d="M215.633 86.36H202.646C190.251 86.36 182.872 80.3588 182.872 67.471V51.927H175.592V36.7765H182.872V28.2174H201.367V36.7765H215.633V51.927H201.367V64.8148C201.367 68.75 202.548 69.7338 206.778 69.7338H215.633V86.36Z"
            fill="white" />
        <path
            d="M143.265 87.3438C123.097 87.3438 110.799 80.1621 110.799 63.4375V62.8472H129.295V64.9132C129.295 69.3403 130.869 70.5208 143.265 70.5208C154.48 70.5208 155.661 69.6354 155.661 66.684C155.661 64.3229 154.382 63.3391 148.971 62.6504L128.311 59.8958C116.014 58.2233 109.816 51.6319 109.816 41.0068C109.816 30.4802 117.981 19.4616 141.789 19.4616C162.744 19.4616 172.779 28.6109 172.779 43.3679V43.9582H154.283V42.4825C154.283 37.7603 152.217 36.1862 139.822 36.1862C130.377 36.1862 128.311 37.4651 128.311 40.3182C128.311 42.3841 129.492 43.3679 133.033 43.8598L153.693 46.9096C169.827 49.2707 174.156 57.5347 174.156 65.9953C174.156 77.309 165.499 87.3438 143.265 87.3438Z"
            fill="white" />
        <path
            d="M23.1 46.14L33.35 33.14C41.1167 23.3467 48.8633 13.54 56.59 3.72C57.2388 2.82534 58.0679 2.07658 59.0238 1.52197C59.9798 0.967365 61.0413 0.619226 62.14 0.499999C63.2177 0.361346 64.3129 0.508363 65.3159 0.92632C66.3189 1.34428 67.1945 2.01849 67.8548 2.88141C68.5152 3.74433 68.9372 4.76564 69.0785 5.84301C69.2198 6.92038 69.0755 8.01597 68.66 9.02C68.2185 10.1296 67.6043 11.1624 66.84 12.08C54.28 28.08 41.6867 44.0567 29.06 60.01C27.06 62.57 24.61 64.19 21.24 63.54C20.0279 63.307 18.9054 62.7389 18 61.9C12.51 56.39 7.08999 50.79 1.69999 45.16C0.847402 44.2717 0.278109 43.15 0.0644417 41.9375C-0.149225 40.7249 0.00237849 39.4762 0.499992 38.35C2.25999 33.45 8.89999 31.12 12.91 35.59C16.14 39.19 19.61 42.55 23.1 46.14Z"
            fill="#80BB2D" />
        <path
            d="M23.13 98.94L29.18 91.29C38.26 79.79 47.34 68.2833 56.42 56.77C58.18 54.53 60.42 53.13 63.3 53.37C68.43 53.79 70.81 59.29 67.8 63.69C66.8 65.17 65.62 66.54 64.5 67.95C52.5733 83.0633 40.6433 98.17 28.71 113.27C26.66 115.86 24.01 117.17 20.71 116.27C19.5385 115.897 18.4771 115.241 17.62 114.36C12.42 109.12 7.31 103.77 2.13 98.5C1.12755 97.5943 0.434814 96.3967 0.149533 95.0761C-0.135749 93.7556 0.000832379 92.3788 0.540003 91.14C1.01526 89.7659 1.87816 88.5588 3.0245 87.6645C4.17084 86.7701 5.55159 86.2267 7 86.1C8.05388 85.9574 9.12669 86.0793 10.1217 86.4546C11.1168 86.8299 12.0028 87.4469 12.7 88.25C15.84 91.55 19.04 94.8 22.21 98.06C22.47 98.34 22.76 98.6 23.13 98.94Z"
            fill="#80BB2D" />
    </g>
    <defs>
        <clipPath id="clip0_1_2">
            <rect width="983.12" height="116.05" fill="white" transform="translate(0 0.5)" />
        </clipPath>
    </defs>
</svg>