<svg width="124" height="160" viewBox="0 0 124 160" fill="none" xmlns="http://www.w3.org/2000/svg">
<path d="M112.396 160H11.2407L0 131.202H123.636L112.396 160Z" fill="url(#paint0_linear_178_267)"/>
<path d="M117.213 95.2057C117.213 98.5482 116.909 101.814 116.345 104.996C115.382 110.291 113.663 115.331 111.303 120.002H77.681C79.7683 118.706 81.6785 117.171 83.382 115.395C84.9083 113.826 86.2393 112.068 87.3795 110.178C90.0119 105.81 91.5224 100.676 91.5224 95.2034C91.5224 93.4789 91.3725 90.4735 90.364 87.0495C86.789 74.9103 76.7134 71.9864 65.5363 56.1607C63.8987 53.8433 62.6881 51.8857 61.9772 50.6976C60.3078 55.2962 58.6111 61.7822 58.6043 69.6079C58.602 72.8622 58.8928 75.8201 59.3152 78.4181C59.4401 79.1106 60.1897 83.7047 57.0008 87.5949C54.575 90.555 51.3543 91.295 50.4003 91.4784C46.2734 86.8074 42.9186 81.4325 40.5406 75.5598C39.0642 77.1757 37.7787 78.9363 36.7021 80.8396C34.2945 85.0784 32.9135 89.9757 32.9135 95.2057C32.9135 105.668 38.4374 114.851 46.7549 120.002H12.3309C8.55831 112.548 6.42328 104.131 6.42328 95.2057C6.42328 73.5117 18.9791 54.7462 37.2676 45.7233C39.2755 33.5479 45.2626 22.7168 53.8391 14.5743C61.7046 7.10382 71.7415 1.88741 82.9323 0C81.2152 5.02405 80.2839 10.4147 80.2839 16.0136C80.2839 19.2136 80.5883 22.3321 81.1675 25.3556C83.014 35.019 87.6702 43.673 94.2684 50.4736C94.2684 50.4736 94.2684 50.4894 94.2843 50.4894C106.436 61.5265 112.859 72.8011 114.69 78.6987C116.452 84.3768 116.988 90.3265 116.988 90.3265C117.15 91.9265 117.213 93.5581 117.213 95.2057Z" fill="url(#paint1_linear_178_267)"/>
<defs>
<linearGradient id="paint0_linear_178_267" x1="0" y1="80" x2="123.636" y2="80" gradientUnits="userSpaceOnUse">
<stop stop-color="#EDE9FE"/>
<stop offset="0.425" stop-color="#C026D3"/>
<stop offset="1" stop-color="#3B0764"/>
</linearGradient>
<linearGradient id="paint1_linear_178_267" x1="0" y1="80" x2="123.636" y2="80" gradientUnits="userSpaceOnUse">
<stop stop-color="#EDE9FE"/>
<stop offset="0.425" stop-color="#C026D3"/>
<stop offset="1" stop-color="#3B0764"/>
</linearGradient>
</defs>
</svg>
